<svg xmlns="http://www.w3.org/2000/svg" xmlns:xlink="http://www.w3.org/1999/xlink" width="1000" zoomAndPan="magnify" viewBox="0 0 600 149.999998" height="400" preserveAspectRatio="xMidYMid meet" version="1.0"><defs><g/></defs><g fill="#ffffff" fill-opacity="1"><g transform="translate(0.289859, 104.708256)"><g><path d="M 81.390625 -14.917969 C 81.484375 -19.828125 81.578125 -21.8125 81.578125 -26.722656 C 81.578125 -27.949219 81.578125 -29.269531 81.675781 -30.59375 C 81.675781 -30.96875 81.296875 -31.347656 80.824219 -31.347656 C 80.542969 -31.347656 74.5 -31.253906 71.761719 -31.253906 C 69.304688 -31.253906 54.765625 -31.347656 54.386719 -31.347656 C 53.632812 -31.160156 53.535156 -30.496094 53.535156 -30.027344 C 53.441406 -28.136719 53.535156 -25.023438 52.402344 -23.605469 C 51.742188 -22.851562 50.136719 -21.8125 47.210938 -21.90625 C 43.71875 -22.09375 40.128906 -23.039062 38.710938 -26.53125 C 37.957031 -28.328125 37.957031 -30.6875 38.808594 -32.480469 C 39.65625 -34.085938 40.414062 -35.21875 42.113281 -35.691406 C 44 -36.257812 72.894531 -36.257812 80.917969 -35.878906 C 81.296875 -35.878906 81.675781 -36.257812 81.675781 -36.636719 C 81.769531 -43.8125 81.863281 -50.894531 81.863281 -57.972656 C 81.863281 -58.070312 81.957031 -58.164062 81.957031 -58.257812 L 81.957031 -58.539062 C 81.957031 -59.011719 81.578125 -59.296875 81.109375 -59.296875 L 27.382812 -59.296875 C 27.289062 -59.296875 27.289062 -59.296875 27.289062 -59.296875 C 18.316406 -59.296875 9.253906 -53.441406 7.554688 -50.609375 C 5.476562 -47.023438 4.4375 -45.984375 3.304688 -41.921875 C 2.832031 -40.507812 2.359375 -37.296875 2.359375 -34.464844 L 2.359375 -23.417969 C 2.359375 -23.320312 2.359375 -23.320312 2.359375 -23.226562 C 2.453125 -22.566406 2.359375 -15.390625 6.136719 -10.199219 C 10.574219 -4.15625 19.261719 0 25.210938 0 L 81.203125 0 C 81.578125 0 81.957031 -0.285156 81.957031 -0.753906 C 81.957031 -0.753906 81.390625 -12.558594 81.390625 -14.917969 Z M 81.390625 -14.917969 "/></g></g></g><g fill="#ffffff" fill-opacity="1"><g transform="translate(84.981508, 104.708256)"><g><path d="M 81.390625 -15.578125 C 81.390625 -16.050781 81.011719 -16.429688 80.636719 -16.335938 C 75.726562 -16.242188 56.746094 -15.769531 52.121094 -15.675781 C 49.570312 -15.675781 47.023438 -15.296875 44.566406 -15.863281 C 42.488281 -16.429688 40.316406 -18.035156 41.546875 -20.488281 C 42.679688 -22.660156 46.359375 -22.285156 48.25 -22.378906 C 50.421875 -22.566406 63.167969 -22.09375 67.320312 -22 C 71.761719 -22 76.199219 -22 80.636719 -22 C 81.011719 -22 81.390625 -22.378906 81.390625 -22.753906 C 81.390625 -23.984375 81.203125 -33.992188 81.203125 -33.992188 C 81.203125 -34.464844 80.917969 -34.839844 80.445312 -34.839844 C 79.21875 -34.746094 51.835938 -34.652344 47.304688 -34.652344 C 45.792969 -34.558594 44.09375 -34.558594 42.679688 -35.03125 C 41.546875 -35.40625 40.316406 -36.445312 40.414062 -37.863281 C 40.601562 -40.128906 43.148438 -40.695312 44.945312 -40.980469 C 49.761719 -41.734375 54.667969 -41.546875 59.484375 -41.355469 C 62.882812 -41.167969 80.445312 -41.261719 80.445312 -41.261719 C 80.917969 -41.261719 81.203125 -41.640625 81.203125 -42.113281 C 81.203125 -42.113281 81.484375 -58.636719 81.484375 -58.730469 C 81.390625 -59.109375 81.011719 -59.296875 80.730469 -59.296875 L 3.398438 -59.296875 C 2.925781 -59.296875 2.550781 -58.917969 2.644531 -58.445312 C 2.644531 -58.257812 2.738281 -58.070312 2.738281 -57.878906 C 4.058594 -48.53125 2.925781 -39.089844 2.832031 -29.742188 C 2.738281 -20.113281 2.738281 -10.386719 2.359375 -0.753906 C 2.265625 -0.285156 2.644531 0 3.117188 0 L 81.011719 0 C 81.484375 0 81.769531 -0.285156 81.769531 -0.753906 C 81.769531 -0.753906 81.390625 -13.972656 81.390625 -15.578125 Z M 81.390625 -15.578125 "/></g></g></g><g fill="#ffffff" fill-opacity="1"><g transform="translate(169.484312, 104.708256)"><g><path d="M 81.578125 -59.203125 C 81.578125 -59.296875 81.390625 -59.296875 81.390625 -59.296875 L 3.304688 -59.296875 C 2.738281 -59.296875 2.359375 -58.917969 2.359375 -58.445312 L 2.359375 -53.726562 C 2.359375 -50.136719 2.925781 -36.539062 2.925781 -36.539062 L 2.925781 -36.445312 C 2.925781 -35.972656 3.304688 -35.503906 3.871094 -35.503906 L 14.636719 -35.503906 C 16.617188 -35.503906 18.601562 -35.597656 20.582031 -35.503906 C 22.285156 -35.40625 23.886719 -35.03125 25.210938 -33.898438 C 26.816406 -32.574219 26.058594 -15.863281 26.058594 -13.21875 C 26.15625 -8.496094 25.871094 -4.910156 26.058594 -0.945312 C 26.058594 -0.378906 26.4375 0 27.003906 0 L 58.070312 0 C 58.636719 0 59.109375 -0.378906 59.011719 -0.945312 C 59.011719 -2.359375 58.917969 -31.066406 59.578125 -32.953125 C 59.863281 -33.707031 60.242188 -34.273438 60.902344 -34.746094 C 61.5625 -35.21875 62.414062 -35.3125 63.167969 -35.40625 C 65.433594 -35.597656 77.234375 -35.21875 80.730469 -35.597656 C 81.296875 -35.691406 81.675781 -36.070312 81.578125 -36.636719 C 81.484375 -39.089844 81.578125 -54.101562 81.578125 -59.203125 Z M 81.578125 -59.203125 "/></g></g></g><g fill="#ff1616" fill-opacity="1"><g transform="translate(301.601423, 106.141784)"><g><path d="M 81.347656 -14.910156 C 81.441406 -19.816406 81.535156 -21.800781 81.535156 -26.707031 C 81.535156 -27.933594 81.535156 -29.253906 81.628906 -30.574219 C 81.628906 -30.953125 81.253906 -31.332031 80.78125 -31.332031 C 80.496094 -31.332031 74.457031 -31.238281 71.722656 -31.238281 C 69.265625 -31.238281 54.734375 -31.332031 54.355469 -31.332031 C 53.601562 -31.140625 53.507812 -30.480469 53.507812 -30.007812 C 53.414062 -28.121094 53.507812 -25.007812 52.375 -23.59375 C 51.714844 -22.835938 50.109375 -21.800781 47.183594 -21.894531 C 43.691406 -22.082031 40.105469 -23.027344 38.691406 -26.519531 C 37.9375 -28.3125 37.9375 -30.671875 38.785156 -32.464844 C 39.636719 -34.066406 40.390625 -35.199219 42.089844 -35.671875 C 43.976562 -36.238281 72.851562 -36.238281 80.875 -35.859375 C 81.253906 -35.859375 81.628906 -36.238281 81.628906 -36.617188 C 81.722656 -43.789062 81.820312 -50.867188 81.820312 -57.941406 C 81.820312 -58.039062 81.914062 -58.132812 81.914062 -58.226562 L 81.914062 -58.507812 C 81.914062 -58.980469 81.535156 -59.265625 81.0625 -59.265625 L 27.367188 -59.265625 C 27.273438 -59.265625 27.273438 -59.265625 27.273438 -59.265625 C 18.308594 -59.265625 9.25 -53.414062 7.550781 -50.582031 C 5.472656 -46.996094 4.433594 -45.957031 3.304688 -41.898438 C 2.832031 -40.484375 2.359375 -37.277344 2.359375 -34.445312 L 2.359375 -23.402344 C 2.359375 -23.308594 2.359375 -23.308594 2.359375 -23.214844 C 2.453125 -22.554688 2.359375 -15.382812 6.132812 -10.191406 C 10.570312 -4.152344 19.25 0 25.195312 0 L 81.15625 0 C 81.535156 0 81.914062 -0.28125 81.914062 -0.753906 C 81.914062 -0.753906 81.347656 -12.550781 81.347656 -14.910156 Z M 81.347656 -14.910156 "/></g></g></g><g fill="#ff1616" fill-opacity="1"><g transform="translate(386.234432, 106.141784)"><g><path d="M 80.121094 0 C 80.402344 0 80.6875 -0.28125 80.496094 -0.566406 C 79.742188 -2.546875 75.777344 -18.496094 75.210938 -20.949219 C 74.082031 -26.046875 73.042969 -31.046875 71.722656 -36.050781 C 70.496094 -41.144531 69.644531 -44.730469 68.136719 -49.734375 C 67.378906 -52.375 66.90625 -56.246094 66.152344 -58.980469 C 66.152344 -59.167969 65.964844 -59.265625 65.777344 -59.265625 L 17.082031 -59.265625 C 16.796875 -59.265625 16.609375 -59.167969 16.609375 -58.886719 C 16.324219 -57.1875 15.855469 -55.488281 15.382812 -53.789062 C 14.0625 -48.882812 10.097656 -28.78125 8.585938 -23.875 C 7.078125 -18.96875 2.832031 -4.433594 2.265625 -2.074219 C 2.171875 -1.605469 1.980469 -1.039062 1.886719 -0.472656 C 1.792969 -0.1875 1.980469 0.09375 2.265625 0.09375 L 31.992188 0.09375 C 32.273438 0.09375 32.464844 -0.1875 32.464844 -0.378906 C 32.652344 -7.171875 33.972656 -13.871094 35.011719 -20.574219 C 35.953125 -27.273438 36.804688 -30.574219 38.03125 -37.558594 C 38.21875 -38.597656 39.070312 -41.144531 41.523438 -41.050781 C 43.316406 -40.957031 44.164062 -38.878906 44.355469 -36.144531 C 44.636719 -32.558594 46.429688 -24.535156 46.714844 -22.933594 C 46.902344 -21.515625 48.035156 -18.117188 47.089844 -17.082031 C 46.242188 -16.230469 39.257812 -16.609375 38.597656 -16.703125 C 38.410156 -16.703125 38.125 -16.515625 38.125 -16.324219 C 37.558594 -12.738281 36.050781 -3.964844 35.953125 -0.378906 C 35.953125 -0.1875 36.144531 0.09375 36.425781 0.09375 L 80.121094 0.09375 Z M 80.121094 0 "/></g></g></g><g fill="#ff1616" fill-opacity="1"><g transform="translate(468.886077, 106.141784)"><g><path d="M 2.832031 -59.265625 C 2.738281 -59.167969 2.640625 -59.074219 2.546875 -58.886719 C 2.546875 -55.207031 2.832031 -33.03125 2.925781 -25.667969 C 3.019531 -20.667969 3.304688 -3.679688 2.640625 -0.378906 C 2.640625 -0.1875 2.832031 0 3.019531 0 L 43.503906 0 C 44.070312 0 44.542969 -0.472656 44.449219 -1.039062 C 44.164062 -5.472656 43.882812 -9.8125 43.789062 -14.25 C 43.597656 -19.441406 43.882812 -24.628906 43.882812 -29.820312 C 43.789062 -39.257812 43.128906 -48.976562 43.789062 -58.226562 C 43.789062 -58.792969 43.316406 -59.265625 42.75 -59.265625 Z M 2.832031 -59.265625 "/></g></g></g><g fill="#ff1616" fill-opacity="1"><g transform="translate(515.967321, 106.141784)"><g><path d="M 81.347656 -26.894531 C 81.441406 -37.558594 81.535156 -48.128906 81.535156 -58.792969 C 81.535156 -58.886719 81.535156 -58.980469 81.535156 -59.074219 C 81.535156 -59.167969 81.441406 -59.265625 81.347656 -59.265625 L 47.5625 -59.265625 C 47.46875 -59.265625 47.375 -59.167969 47.375 -59.074219 C 47.375 -54.921875 47.5625 -47.46875 47.089844 -43.503906 C 46.996094 -42.75 46.617188 -41.996094 45.769531 -41.804688 C 45.015625 -41.617188 44.164062 -41.898438 43.789062 -42.65625 C 41.710938 -46.808594 40.296875 -54.734375 38.597656 -59.167969 C 38.597656 -59.265625 38.503906 -59.265625 38.410156 -59.265625 L 2.832031 -59.265625 C 2.640625 -59.265625 2.546875 -59.167969 2.546875 -59.074219 L 2.546875 -58.132812 C 3.304688 -50.109375 2.925781 -40.203125 2.925781 -31.332031 C 2.832031 -20.949219 2.453125 -10.570312 2.453125 -0.1875 C 2.453125 -0.09375 2.546875 0 2.640625 0 L 35.671875 0 C 35.765625 0 35.859375 -0.09375 35.859375 -0.1875 C 35.765625 -4.246094 35.386719 -10.003906 35.671875 -13.964844 C 35.765625 -15.570312 37.746094 -16.515625 38.691406 -15.289062 C 40.390625 -12.738281 41.050781 -7.832031 42.464844 -4.71875 C 43.128906 -3.207031 43.691406 -1.605469 44.257812 -0.09375 C 44.355469 0 44.355469 0.09375 44.542969 0.09375 L 80.96875 0.09375 C 81.15625 0.09375 81.253906 -0.09375 81.253906 -0.1875 C 81.15625 -1.511719 81.347656 -19.347656 81.347656 -26.894531 Z M 81.347656 -26.894531 "/></g></g></g><g fill="#f8ad36" fill-opacity="1"><g transform="translate(246.491475, 102.738674)"><g><path d="M 13.625 0.421875 C 12.820312 0.421875 12.128906 0.207031 11.546875 -0.21875 C 10.960938 -0.65625 10.53125 -1.34375 10.25 -2.28125 C 9.28125 -0.476562 7.796875 0.421875 5.796875 0.421875 C 4.347656 0.421875 3.175781 -0.101562 2.28125 -1.15625 C 1.382812 -2.21875 0.9375 -3.710938 0.9375 -5.640625 L 0.9375 -6.828125 C 0.9375 -7.972656 1.140625 -8.976562 1.546875 -9.84375 C 1.960938 -10.707031 2.539062 -11.472656 3.28125 -12.140625 C 4.03125 -12.816406 4.90625 -13.40625 5.90625 -13.90625 C 6.90625 -14.40625 8.007812 -14.878906 9.21875 -15.328125 L 9.21875 -19.15625 C 9.21875 -20.46875 8.648438 -21.125 7.515625 -21.125 C 6.890625 -21.125 6.453125 -20.953125 6.203125 -20.609375 C 5.960938 -20.265625 5.84375 -19.75 5.84375 -19.0625 L 5.84375 -16.875 L 1.65625 -16.875 L 1.65625 -18.84375 C 1.65625 -20.707031 2.15625 -22.234375 3.15625 -23.421875 C 4.15625 -24.617188 5.675781 -25.21875 7.71875 -25.21875 C 9.75 -25.21875 11.25 -24.585938 12.21875 -23.328125 C 13.1875 -22.066406 13.671875 -20.453125 13.671875 -18.484375 L 13.671875 -4.296875 C 13.671875 -3.503906 14.015625 -3.09375 14.703125 -3.0625 L 14.703125 0.421875 Z M 9.21875 -11.8125 C 6.625 -10.90625 5.328125 -9.472656 5.328125 -7.515625 L 5.328125 -5.546875 C 5.328125 -4.921875 5.460938 -4.398438 5.734375 -3.984375 C 6.015625 -3.566406 6.453125 -3.359375 7.046875 -3.359375 C 7.660156 -3.359375 8.175781 -3.59375 8.59375 -4.0625 C 9.007812 -4.53125 9.21875 -5.109375 9.21875 -5.796875 Z M 9.21875 -11.8125 "/></g></g></g><g fill="#f8ad36" fill-opacity="1"><g transform="translate(262.07417, 102.738674)"><g><path d="M 10.25 0 L 10.25 -19 C 10.25 -19.65625 10.082031 -20.179688 9.75 -20.578125 C 9.425781 -20.972656 9.003906 -21.171875 8.484375 -21.171875 C 8.179688 -21.171875 7.890625 -21.082031 7.609375 -20.90625 C 7.335938 -20.738281 7.113281 -20.515625 6.9375 -20.234375 C 6.769531 -19.960938 6.632812 -19.660156 6.53125 -19.328125 C 6.425781 -19.003906 6.375 -18.6875 6.375 -18.375 L 6.375 0 L 1.765625 0 L 1.765625 -24.859375 L 5.84375 -24.859375 L 6.109375 -21.59375 C 6.523438 -22.800781 7.117188 -23.707031 7.890625 -24.3125 C 8.671875 -24.914062 9.523438 -25.21875 10.453125 -25.21875 C 11.867188 -25.21875 12.957031 -24.722656 13.71875 -23.734375 C 14.476562 -22.753906 14.859375 -21.4375 14.859375 -19.78125 L 14.859375 0 Z M 10.25 0 "/></g></g></g><g fill="#f8ad36" fill-opacity="1"><g transform="translate(278.640488, 102.738674)"><g><path d="M 10.828125 0 L 10.515625 -2.4375 C 10.097656 -1.4375 9.515625 -0.707031 8.765625 -0.25 C 8.023438 0.195312 7.207031 0.421875 6.3125 0.421875 C 4.757812 0.421875 3.566406 -0.117188 2.734375 -1.203125 C 1.910156 -2.296875 1.5 -3.707031 1.5 -5.4375 L 1.5 -19.359375 C 1.5 -21.085938 1.921875 -22.492188 2.765625 -23.578125 C 3.609375 -24.671875 4.6875 -25.21875 6 -25.21875 C 6.90625 -25.21875 7.660156 -25.035156 8.265625 -24.671875 C 8.867188 -24.304688 9.410156 -23.765625 9.890625 -23.046875 L 9.890625 -34.484375 L 14.5 -34.484375 L 14.5 0 Z M 9.890625 -18.796875 C 9.890625 -19.523438 9.71875 -20.101562 9.375 -20.53125 C 9.03125 -20.957031 8.5625 -21.171875 7.96875 -21.171875 C 7.382812 -21.171875 6.910156 -20.957031 6.546875 -20.53125 C 6.179688 -20.101562 6 -19.488281 6 -18.6875 L 6 -6 C 6 -5.207031 6.179688 -4.601562 6.546875 -4.1875 C 6.910156 -3.78125 7.382812 -3.578125 7.96875 -3.578125 C 8.488281 -3.578125 8.9375 -3.78125 9.3125 -4.1875 C 9.695312 -4.601562 9.890625 -5.191406 9.890625 -5.953125 Z M 9.890625 -18.796875 "/></g></g></g></svg>